# xmcd
#
# Track frame offsets: 
#        150
#        8320
#        19395
#        32342
#        42257
#        53908
#        67018
#        80451
#        92138
#        104224
#        116689
#        129126
#        141659
#        153113
#        165579
#        183895
#        202019
#        221219
#        241402
#        262938
#        287597
#
# Disc length: 4198 seconds
#
# Revision: 0
# Processed by: cddbd v1.5.2PL0 Copyright (c) Steve Scherf et al.
# Submitted via: ExactAudioCopy v0.95b3
#
DISCID=25106415
DTITLE=Cliff Richard  - They Said It Wouldn't Last - Stage And Screen 
DTITLE=Disc 4
DYEAR=1900
DGENRE=
TTITLE0=Mad About You
TTITLE1=Love
TTITLE2=Lessons In Love
TTITLE3=Dancing Shoes
TTITLE4=On The Beach
TTITLE5=This Was My Special Day
TTITLE6=I Could Easily Fall (In Love With You)
TTITLE7=Time Drags By
TTITLE8=Shooting Star
TTITLE9=Why Wasn't I Born Rich
TTITLE10=In The Country
TTITLE11=Two A Penny
TTITLE12=His Land
TTITLE13=Take Me High
TTITLE14=Suddenly
TTITLE15=Born To Rock 'n' Roll
TTITLE16=She's So Beautiful
TTITLE17=It's In Every One Of Us
TTITLE18=Misunderstood Man
TTITLE19=Be With Me Always
TTITLE20=Had To Be
EXTD=
EXTT0=
EXTT1=
EXTT2=
EXTT3=
EXTT4=
EXTT5=
EXTT6=
EXTT7=
EXTT8=
EXTT9=
EXTT10=
EXTT11=
EXTT12=
EXTT13=
EXTT14=
EXTT15=
EXTT16=
EXTT17=
EXTT18=
EXTT19=
EXTT20=
PLAYORDER=
